<svg width="274" height="274" viewBox="0 0 274 274" fill="none" xmlns="http://www.w3.org/2000/svg">
	<path d="M234.163 74.2254L233.954 74.1557L137.954 42.1557L137.953 42.1552C137.334 41.9483 136.666 41.9483 136.048 42.1552L136.046 42.1557L40.0475 74.1552L234.163 74.2254ZM234.163 74.2254C234.668 74.4398 235.106 74.7893 235.428 75.2374C235.794 75.7473 235.991 76.3592 235.991 76.987C235.991 77.6147 235.794 78.2266 235.428 78.7366C235.062 79.2459 234.546 79.6279 233.952 79.8288C233.952 79.829 233.951 79.8293 233.95 79.8295L184.804 96.2183L183.493 96.6555L184.318 97.7641C189.645 104.92 193.281 113.191 194.951 121.954C196.62 130.718 196.281 139.746 193.958 148.359C191.636 156.973 187.39 164.947 181.54 171.683C175.691 178.419 168.39 183.74 160.187 187.247L157.556 188.372L160.315 189.131C180.921 194.801 198.908 208.029 211.501 227.345C211.89 228.008 212.01 228.794 211.836 229.543C211.66 230.298 211.199 230.956 210.55 231.379C209.9 231.801 209.112 231.956 208.351 231.811C207.595 231.667 206.924 231.238 206.476 230.613C190.48 206.095 165.148 191.997 137 191.997C108.852 191.997 83.5196 206.095 67.5237 230.623C67.0755 231.248 66.4046 231.677 65.6491 231.821C64.8878 231.966 64.0998 231.811 63.4501 231.389C62.8005 230.966 62.3397 230.308 62.1643 229.553C61.9903 228.805 62.1104 228.018 62.4991 227.356C75.1429 208.038 93.0803 194.811 113.685 189.141L116.444 188.382L113.813 187.257C105.61 183.75 98.3093 178.429 92.4598 171.693C86.6103 164.957 82.3644 156.983 80.0416 148.369C77.7188 139.756 77.3795 130.728 79.0494 121.964C80.7192 113.201 84.3546 104.93 89.6821 97.7741L90.5075 96.6655L89.1963 96.2283L45.3163 81.5983L44 81.1594V82.547V156.997C44 157.793 43.6839 158.556 43.1213 159.118C42.5587 159.681 41.7957 159.997 41 159.997C40.2043 159.997 39.4413 159.681 38.8787 159.118C38.3161 158.556 38 157.793 38 156.997V76.9974C38.0006 76.3689 38.1984 75.7565 38.5658 75.2466C38.9329 74.7369 39.4507 74.3553 40.0462 74.1557L234.163 74.2254ZM96.5961 98.6916L97.2462 98.9083L136.046 111.838L136.052 111.84C136.667 112.049 137.333 112.049 137.948 111.84L137.954 111.838L176.754 98.9083L177.403 98.6919L177.84 99.2188C185.711 108.715 190.012 120.664 190 132.997L96.5961 98.6916ZM96.5961 98.6916L96.1594 99.2196M96.5961 98.6916L96.1594 99.2196M96.1594 99.2196C90.7391 105.773 86.9754 113.535 85.1862 121.849C83.397 130.163 83.6348 138.786 85.8796 146.989C88.1245 155.192 92.3103 162.734 98.0837 168.978C103.857 175.223 111.048 179.987 119.05 182.867C127.052 185.747 135.63 186.66 144.059 185.527C152.487 184.394 160.52 181.25 167.478 176.359C174.435 171.469 180.114 164.976 184.034 157.428C187.954 149.882 190 141.502 190 132.998L96.1594 99.2196ZM136.684 105.726L137 105.831L137.316 105.726L220.666 77.9457L223.513 76.997L220.666 76.0483L137.316 48.2683L137 48.1629L136.684 48.2683L53.3338 76.0483L50.4874 76.997L53.3338 77.9457L136.684 105.726Z" fill="white" stroke="white" stroke-width="2"/>
</svg>
