<svg width="241" height="241" viewBox="0 0 241 241" fill="none" xmlns="http://www.w3.org/2000/svg">
<path d="M173.219 20.0833C176.845 20.0833 180.436 20.7975 183.786 22.1853C187.137 23.573 190.181 25.6071 192.745 28.1714C195.31 30.7356 197.344 33.7798 198.731 37.1302C200.119 40.4805 200.833 44.0714 200.833 47.6978V193.302C200.833 196.928 200.119 200.519 198.731 203.87C197.344 207.22 195.31 210.264 192.745 212.828C190.181 215.393 187.137 217.427 183.786 218.815C180.436 220.202 176.845 220.917 173.219 220.917H67.7813C64.1541 220.917 60.5624 220.202 57.2114 218.814C53.8604 217.425 50.8157 215.39 48.2513 212.825C45.6869 210.26 43.6531 207.214 42.2659 203.863C40.8787 200.511 40.1654 196.919 40.1667 193.292V47.6978C40.1667 35.0453 48.662 24.4012 60.2501 21.1175V37.6562C57.1974 39.9457 55.2293 43.5808 55.2293 47.6978V193.282C55.2293 200.211 60.8526 205.834 67.7813 205.834H173.219C180.148 205.834 185.771 200.211 185.771 193.282V47.6978C185.771 40.7691 180.148 35.1458 173.219 35.1458H150.625V20.0833H173.219ZM140.583 20.0833V101.812C140.583 109.313 132.55 112.125 127.63 109.484L126.806 108.962L105.458 96.0585L84.5911 108.621C79.5702 112.236 71.2357 110.026 70.362 103.017L70.2918 101.822V20.0833H140.583ZM125.521 35.1458H85.3542V90.6059L101.15 81.0763C102.408 80.4073 103.804 80.0375 105.229 79.9957C106.653 79.9539 108.068 80.2412 109.364 80.8353L125.531 90.6159L125.521 35.1458Z" fill="white"/>
</svg>
